<svg xmlns="http://www.w3.org/2000/svg" viewBox="0 0 946 196.2"><defs><style>.cls-1{fill:#1db6eb;}.cls-2{fill:#090400;}.cls-3{fill:#aecc4b;}</style></defs><g id="Calque_2" data-name="Calque 2"><g id="Mode_Isolation" data-name="Mode Isolation"><path class="cls-1" d="M113,73.9a8.93,8.93,0,0,1-2.95-.51C74.71,60.83,39.4,46.26,5.05,30.1a8.8,8.8,0,0,1,7.49-15.92C46.37,30.1,81.15,44.44,115.91,56.81a8.8,8.8,0,0,1-3,17.09"/><path class="cls-2" d="M534.54,118.1H470.16L530.37,38A42.13,42.13,0,0,0,534.24,32a13.29,13.29,0,0,0,1.49-6.26A13.16,13.16,0,0,0,530.57,15h-77.1q-8.14,0-8.14,9.14a14.46,14.46,0,0,0,.79,5,14.72,14.72,0,0,0,1.79,3.58h61.8L449.3,112.54a38.09,38.09,0,0,0-3.87,6.25,14.61,14.61,0,0,0-1.5,6.46,13.62,13.62,0,0,0,1.3,6.06,12.87,12.87,0,0,0,3.48,4.48h80.47a7.63,7.63,0,0,0,5.76-2.29q2.19-2.28,2.19-6.86a14.42,14.42,0,0,0-.8-5,15.09,15.09,0,0,0-1.79-3.58"/><path class="cls-2" d="M805.42,78.33a14.15,14.15,0,0,0-2.18-4.55,14.55,14.55,0,0,0-2.74-2.93s-5.24,1.8-16,4.75S739.59,88,714.32,93.78V11.42q0-5.56-2.88-7.75T702.8,1.48a31.12,31.12,0,0,0-5.66.5c-1.79.33-3.22.63-4.28.89v99.31a10.92,10.92,0,0,0,11.53,11.52l.17,0s6.53-1.13,9.76-1.86h0c27.19-6.09,52.19-12.73,75.19-19.27l0,.06,6.52-1.93,2.63-.76a2.6,2.6,0,0,0,.25-.1l1.46-.43a7.6,7.6,0,0,0,4.88-3.84q1.46-2.82.15-7.21"/><path class="cls-3" d="M833,78.32a8.8,8.8,0,0,1-2.95-17.09c34.76-12.37,69.54-26.71,103.37-42.63A8.8,8.8,0,0,1,941,34.52C906.6,50.68,871.29,65.25,836,77.81a8.93,8.93,0,0,1-3,.51"/><path class="cls-2" d="M418.1,118.39c-2.19-2.85-11.33-16-14.37-19.87s-6.16-7.85-9.34-11.82Q407.11,82.13,414,72.88t6.86-22.35q0-18.87-12.62-29.31T369.75,10.79q-8.55,0-17.09.79a61.4,61.4,0,0,0-14.7,3,12.13,12.13,0,0,0-5.27,2.88,7.1,7.1,0,0,0-1.88,5.26v95.56q0,5.37,2.68,7.65c1.79,1.52,4.73,2.29,8.84,2.29a30.66,30.66,0,0,0,5.76-.5,27.25,27.25,0,0,0,4.17-1.09l-.19-96.95c2.38-.4,5.07-.73,8-1s6-.39,9-.39q14.91,0,22.56,5.56t7.65,16.69c0,5.52-1.1,10.22-4.05,13.47-6.24,6.84-12.89,7.56-18.59,10.29a13.48,13.48,0,0,0-5.47,4.28,15.09,15.09,0,0,0-2,3.47l17.59,26.39v.22l11.67,17.59a31.12,31.12,0,0,0,5.57,6.26,11.55,11.55,0,0,0,7.55,2.29A12.48,12.48,0,0,0,419,132.4a11,11,0,0,0,4.37-7q-2-2.77-5.26-7"/><path class="cls-2" d="M306,178.1c0-3.34-.27-82-1.74-100.69C300.65,30.87,274.11,0,258.16,0c-14,0-42.17,24.7-46,71.91-.34,4.1-.6,8.56-.8,13.21L211,85c-15.08-4-31.32-8.64-49.53-14.34l-16-4.82a14.82,14.82,0,0,0-2.74,2.93,14.26,14.26,0,0,0-2.18,4.55q-1.31,4.4.15,7.21c1,1.88,1.89,2.73,4.88,3.84S178.08,94.17,188,97c7.94,2.26,15.52,4.3,22.85,6.2-.4,24.65.28,48.79.32,50.24a5.17,5.17,0,0,0,.07.55v.58q0,5.37,2.68,7.65c1.79,1.52,4.8,2.66,8.9,2.66a30.85,30.85,0,0,0,5.77-.5,26.13,26.13,0,0,0,4.17-1.09s-.56-39.1-.39-55.06l17.18,4,10.11,2.18a7.6,7.6,0,0,0,6.09-1.12c1.73-1.2,2.9-3.3,3.49-6.29a14.18,14.18,0,0,0,.19-5,14.71,14.71,0,0,0-1.05-3.85L246.17,93.5c-4.42-1-8.87-2-13.43-3,.21-6,.5-11.73.91-16.81,2.69-32.94,18.57-47.91,24.31-51.45,6.34,4.45,22.2,23.43,24.82,56.88.84,10.71,1.27,43.76,1.48,68.77l.06,41.79a26.13,26.13,0,0,0,4.17,1.09,30.85,30.85,0,0,0,5.77.5q6.15,0,8.84-2.29c1.79-1.52,2.9-3.82,2.9-7.4v-3.24a1.52,1.52,0,0,0,0-.21"/><path class="cls-2" d="M678.07,109.24a14.57,14.57,0,0,0-1.69-4.75,14.41,14.41,0,0,0-2.41-3.2l-14.09,2.58c-1.66.4-4.09.87-7,1.37-.17-11.82-.56-23.63-1.33-33C647.73,25,619.58.27,605.56.27c-15.95,0-42.49,30.88-46.13,77.41-1.47,18.71-1.72,101.85-1.73,105.38,0,.07,0,.14,0,.22v3.23c0,3.58,1.12,5.88,2.91,7.41s4.73,2.28,8.84,2.28a30.66,30.66,0,0,0,5.76-.5,26.13,26.13,0,0,0,4.17-1.09l.06-43.51c.21-26.35.64-61,1.48-71.73,2.62-33.45,18.48-52.43,24.82-56.89C611.5,26,627.38,41,630.07,73.94c.79,9.64,1.15,22.18,1.29,34.6l-.4.06h0q-6.88,1-13.94,2l-21.56,2.6a15.11,15.11,0,0,0-1.36,3.76,14.55,14.55,0,0,0-.21,5q.52,4.55,3,6.55a7.32,7.32,0,0,0,4.64,1.65l8.47-1c3.07-.38,6.15-.76,9.18-1.17l5.09-.64,0-.06,2.95-.4,4.27-.67c0,11.23-.43,42-.43,42a26.13,26.13,0,0,0,4.17,1.09,30.66,30.66,0,0,0,5.76.5c4.1,0,7.12-1.14,8.9-2.66s2.69-4.07,2.69-7.65v-.6c0-.19.06-.37.07-.56,0-.57.11-4.4.21-10.28,0-.37,0-.62,0-.66v-.16c.11-6.38.21-15,.22-24.39l4.91-.77,1.89-.32,12.06-2.07a7.62,7.62,0,0,0,5.27-3.3q1.74-2.64.92-7.16"/></g></g></svg>