<?xml version="1.0" encoding="utf-8"?>
<!-- Generator: Adobe Illustrator 25.4.1, SVG Export Plug-In . SVG Version: 6.00 Build 0)  -->
<svg version="1.1" id="Calque_1" xmlns="http://www.w3.org/2000/svg" xmlns:xlink="http://www.w3.org/1999/xlink" x="0px" y="0px"
	 viewBox="0 0 477.9 175.1" style="enable-background:new 0 0 477.9 175.1;" xml:space="preserve">
<style type="text/css">
	.st0{fill:#FFFFFF;}
	.st1{fill:#FBC569;}
</style>
<g>
	<path class="st0" d="M130.2,140.9c-1.7-5.2-2.2-7.1-2.2-7.3h-0.2c-0.1,0.2-0.6,2.1-2.2,7.3l-1.3,4.2h7.3L130.2,140.9z M145.8,161.3
		h-13.7v-6.5h2.7l-1.4-4.4h-10.7l-1.4,4.4h2.6v6.5h-13.1v-6.5h3.5l5.1-14.8c1.2-3.6,1.5-4.6,1.7-5.1l-0.1-0.1h-1.7h-1.3v-6.5h15.2
		l9.1,26.5h3.4V161.3z"/>
	<polygon class="st0" points="185,139 185,134.8 180.2,134.8 180.2,154.8 183.8,154.8 183.8,161.3 169.3,161.3 169.3,154.8 
		172.8,154.8 172.8,134.8 168.1,134.8 168.1,139 161.6,139 161.6,128.3 191.5,128.3 191.5,139 	"/>
	<path class="st0" d="M225.3,147.9c0,9.2-5.1,14.1-13.6,14.1c-8.5,0-13.7-4.9-13.7-14.1v-13.1h-3.4v-6.5h14.4v6.5h-3.2v13.1
		c0,4.9,2,7.2,6.2,7.2c4.2,0,6.2-2.2,6.2-7.2v-13.1h-3.3v-6.5h13.9v6.5h-3.5V147.9z"/>
	<path class="st0" d="M247.4,143.5c3.2,0,4.9-1.5,4.9-4.4c0-2.9-1.7-4.4-4.9-4.4h-4.6v8.7H247.4z M252.7,161.3l-6.3-12.3
		c-0.7,0.1-1.4,0.1-1.9,0.1h-1.8v5.8h3.2v6.5H232v-6.5h3.4v-20H232v-6.5h15.3c8.1,0,12.6,4.2,12.6,10.7c0,4.4-2.4,7.3-5.7,8.4
		l3.8,7.4h3.9v6.5H252.7z"/>
	<path class="st0" d="M281,155.1c2.7,0,4.3-1.4,4.3-4c0-2.7-1.8-4.1-4.4-4.1h-5.5v8.1H281z M280.2,141.7c1.9,0,3.8-1.2,3.8-3.6
		c0-2.1-1.5-3.5-3.8-3.5h-4.8v7.1H280.2z M286.5,143.9c3.2,0.8,6.3,3.2,6.3,8c0,5.4-3.6,9.4-11.5,9.4h-16.7v-6.5h3.4v-20h-3.4v-6.5
		h16.6c6.1,0,10,3.8,10,8.7c0,4-2.6,6.1-4.7,6.7V143.9z"/>
	<path class="st0" d="M314.1,140.9c-1.7-5.2-2.2-7.1-2.2-7.3h-0.2c-0.1,0.2-0.6,2.1-2.2,7.3l-1.3,4.2h7.3L314.1,140.9z M329.7,161.3
		h-13.7v-6.5h2.7l-1.4-4.4h-10.7l-1.4,4.4h2.6v6.5h-13.1v-6.5h3.5l5.1-14.8c1.2-3.6,1.5-4.6,1.7-5.1l-0.1-0.1h-1.7H302v-6.5h15.2
		l9.1,26.5h3.4V161.3z"/>
	<polygon class="st0" points="332.3,161.3 332.3,154.8 335.7,154.8 335.7,134.8 332.3,134.8 332.3,128.3 346.5,128.3 346.5,134.8 
		343.1,134.8 343.1,154.8 351.3,154.8 351.3,150.4 358.2,150.4 358.2,161.3 	"/>
	<polygon class="st0" points="362,161.3 362,154.8 365.4,154.8 365.4,134.8 362,134.8 362,128.3 376.2,128.3 376.2,134.8 
		372.8,134.8 372.8,154.8 381,154.8 381,150.4 387.9,150.4 387.9,161.3 	"/>
	<polygon class="st0" points="391.7,161.3 391.7,154.8 395.1,154.8 395.1,134.8 391.7,134.8 391.7,128.3 418,128.3 418,138.8 
		411.1,138.8 411.1,134.8 402.5,134.8 402.5,141.3 410.2,141.3 410.2,147.6 402.5,147.6 402.5,154.8 411.4,154.8 411.4,150.3 
		418.3,150.3 418.3,161.3 	"/>
	<polygon class="st0" points="101.1,150.4 101.1,154.8 93,154.8 93,12.1 85.6,12.1 85.6,154.8 82.2,154.8 82.2,161.3 108,161.3 
		108,150.4 	"/>
	<path class="st0" d="M106.4,104.3c2.1-13.9,7.1-51.5,2-75.6c3.3,2.5,7.4,6.3,11.6,11.6c8.6,11.1,18.9,31.3,20.2,65.6
		c-4.1-1.2-10.6-2.3-19.9-2.3C115.9,103.5,111.2,103.8,106.4,104.3 M147.9,111.4c-0.2-39.9-12.2-63.5-22.1-76.2
		c-11.1-14.1-22.2-18.5-22.6-18.7l-8.6-3.3l3.7,8.5c10.6,24-0.2,85.7-0.3,86.3l-0.9,5.2l5.2-0.7c6.4-0.9,12.4-1.3,17.8-1.3
		c15.5,0,21.9,3.5,21.9,3.5l5.9,3.6L147.9,111.4z"/>
	<path class="st0" d="M465.6,140c-2.7,9.2-10.5,15.1-14.5,17.5l-9.9-12c6.8-0.2,16.3-2.5,25.3-11.3
		C466.4,136.2,466.1,138.2,465.6,140 M425.2,102.1c-1.3,3.9-6,6.2-8.9,7.2c-4.7-3.1-9.8-7.3-15.1-12.8c4-2.4,11.4-6.1,20.1-6.8
		C424.1,93.5,426.6,98.2,425.2,102.1 M466.4,110.7c-9.6-15.9-21.5-25.2-35.1-27.6c-20.4-3.6-37.1,9.5-37.8,10l-3,2.4l2.6,2.8
		c35.6,39.1,63.2,24.3,64.3,23.7l-3.5-6.3c-0.7,0.4-12.3,6.3-30-2.1c3.2-1.9,6.6-4.9,8.1-9.2c1.5-4.3,0.8-9.1-2-14.3c0,0,0,0,0,0
		c11.5,2.1,21.7,10.2,30.2,24.3c2.2,3.6,3.9,7.1,4.9,10.5c-13.9,17.5-30.5,12.9-31.2,12.7l-11.3-3.4l26.5,32.2l2.5-1.2
		c0.7-0.3,16.1-7.7,20.7-23.3C475.3,132.4,473.3,121.8,466.4,110.7"/>
	<path class="st0" d="M410.6,94.1c-1.2,1-1.3,2.7-0.4,3.9c1,1.2,2.7,1.3,3.9,0.4c1.2-1,1.3-2.7,0.4-3.9
		C413.5,93.3,411.8,93.2,410.6,94.1"/>
	<path class="st1" d="M19,139.9H69V44.6L19,139.9z M76.9,147.8H6l70.9-135V147.8z"/>
</g>
</svg>
